<svg xmlns="http://www.w3.org/2000/svg" width="37.5" height="26.25" viewBox="0 0 37.5 26.25">
    <defs>
        <filter id="yf1qwe9u7a" x="0" y="0" width="37.5" height="26.25" filterUnits="userSpaceOnUse">
            <feOffset/>
            <feGaussianBlur stdDeviation="1" result="blur"/>
            <feFlood flood-color="#0267ff" flood-opacity=".271"/>
            <feComposite operator="in" in2="blur"/>
            <feComposite in="SourceGraphic"/>
        </filter>
        <filter id="8kz0wh7mbb" x="0" y="0" width="37.5" height="26.25" filterUnits="userSpaceOnUse">
            <feOffset/>
            <feGaussianBlur stdDeviation="5" result="blur-2"/>
            <feFlood flood-color="#fff" result="color"/>
            <feComposite operator="out" in="SourceGraphic" in2="blur-2"/>
            <feComposite operator="in" in="color"/>
            <feComposite operator="in" in2="SourceGraphic"/>
        </filter>
    </defs>
    <g data-type="innerShadowGroup">
        <g style="filter:url(#yf1qwe9u7a)">
            <path data-name="Icon ionic-md-people" d="M23.727 16.313a4.219 4.219 0 1 0-4.3-4.219 4.27 4.27 0 0 0 4.3 4.219zm-11.454 0a4.219 4.219 0 1 0-4.3-4.219 4.27 4.27 0 0 0 4.3 4.219zm0 3.094c-3.365 0-10.023 1.617-10.023 4.922v3.8H22.5v-3.8c0-3.306-6.862-4.923-10.227-4.923zm11.454.774a7.641 7.641 0 0 0-1.227.07c1.647 1.2 2.25 1.969 2.25 4.078v3.8h9v-3.8c0-3.306-6.658-4.149-10.023-4.149z" transform="translate(.75 -4.88)" style="fill:#0267ff"/>
        </g>
        <g style="filter:url(#8kz0wh7mbb)">
            <path data-name="Icon ionic-md-people" d="M23.727 16.313a4.219 4.219 0 1 0-4.3-4.219 4.27 4.27 0 0 0 4.3 4.219zm-11.454 0a4.219 4.219 0 1 0-4.3-4.219 4.27 4.27 0 0 0 4.3 4.219zm0 3.094c-3.365 0-10.023 1.617-10.023 4.922v3.8H22.5v-3.8c0-3.306-6.862-4.923-10.227-4.923zm11.454.774a7.641 7.641 0 0 0-1.227.07c1.647 1.2 2.25 1.969 2.25 4.078v3.8h9v-3.8c0-3.306-6.658-4.149-10.023-4.149z" transform="translate(.75 -4.88)" style="fill:#fff"/>
        </g>
    </g>
</svg>
